<svg fill="#000" width="133" height="75" viewBox="0 0 133 75"  xmlns="http://www.w3.org/2000/svg">
<path d="M15.5201 18.3458L9 25.749V43.4821C9 56.5667 9.15402 61.4447 9.61607 61.9612C10.0781 62.4777 14.3906 62.6499 25.942 62.6499H41.6518L48.4286 55.0172L55.2054 47.3271V39.4649C55.2054 35.1033 54.9487 31.0861 54.692 30.4548C54.1786 29.4218 53.5112 29.3645 44.5268 29.3645C37.6987 29.3645 34.6697 29.594 34.2589 30.0531C33.4375 30.9713 33.4375 42.6786 34.2589 43.5969C34.6183 43.9986 36.0558 44.2855 37.5447 44.2855C39.9063 44.2855 40.3683 44.056 41.6005 42.4491C45.7589 36.9398 49.9174 32.2339 50.5848 32.2339C52.279 32.2339 52.6384 33.5538 52.6384 39.5796C52.6384 42.8508 52.3817 46.0072 52.125 46.6385C51.6116 47.6715 50.8929 47.7288 37.75 47.7288C25.8906 47.7288 23.8371 47.6141 23.1696 46.8106C22.4509 46.0646 22.3482 43.769 22.3482 30.5696C22.3482 19.4362 22.5022 15.0747 22.9643 14.5582C23.375 14.0991 25.9933 13.8695 31.3839 13.8695H39.1362L42.2679 17.7145C49.1473 26.3229 48.6339 25.9211 51.5089 25.9211C53.5625 25.9211 54.2299 25.6916 54.692 24.8307C55.2567 23.6256 55.4107 13.4104 54.8973 11.9183C54.6406 11.1148 52.6898 11.0001 38.3147 11.0001H22.0402L15.5201 18.3458Z" />

</svg>